<svg width="147" height="144" fill="none" xmlns="http://www.w3.org/2000/svg"><g clip-path="url(#a)" stroke="#1B383C" stroke-width="2" stroke-miterlimit="10"><path d="M88.88 118.209c.72 4.23 2.74 8.38 6.26 10.66a20.375 20.375 0 0 0 7.92 2.54 121.21 121.21 0 0 0 18.46 1.59c5 0 9.85.74 14.25-2.4 2.782-2 4.769-4.918 5.61-8.24.465-2.066.646-4.185.54-6.3-.07-2.53-.37-5.07-.63-7.57-8.39-1.06-17.45-.08-26-.57-8.55-.49-17.08-1.28-25.58-2.3-.24 0-.55 0-.65.22-.1.22-.9 8.16-.18 12.37Z" fill="#D9D9D9"/><path d="M86.26 101.829v-.33a1.249 1.249 0 0 1 1.31-1.18l9.6.57v-.07a2.55 2.55 0 0 1 2-2.4 7.999 7.999 0 0 1 3.3.12c8.75 1.51 17.73.5 26.61.33a10.83 10.83 0 0 1 4.5.57 5.934 5.934 0 0 1 3 3.79l7.29.43a1.214 1.214 0 0 1 1.078.842c.05.154.067.317.052.478l-.25 3.42a1.282 1.282 0 0 1-1.31 1.18l-56.37-3.35a1.223 1.223 0 0 1-1.07-1.32c.19-1.015.278-2.047.26-3.08Z" fill="#FF9820"/><path d="M73.38 99.74c1.5 3.299 4 6.259 7.4 7.369 2.282.609 4.665.738 7 .38a102.216 102.216 0 0 0 15.41-2.66c4.08-1 8.22-1.5 11.14-5a12.388 12.388 0 0 0 2.82-7.93 19.591 19.591 0 0 0-.91-5.26c-.6-2.06-1.39-4.07-2.13-6.06-7.09.93-14.28 3.67-21.35 5.09a357.35 357.35 0 0 1-21.39 3.6c-.2 0-.45.1-.48.31-.03.21 1 6.85 2.49 10.16Z" fill="#D9D9D9"/><path d="M67.74 86.92v-.28a1 1 0 0 1 .81-1.24l8-1.59a.138.138 0 0 0 0-.06 2.17 2.17 0 0 1 1.15-2.39 6.848 6.848 0 0 1 2.73-.61c7.46-.64 14.58-3.38 21.81-5.42a9.299 9.299 0 0 1 3.79-.5 5.003 5.003 0 0 1 3.29 2.45l6-1.21a.999.999 0 0 1 1.21.84l.52 2.85a1.063 1.063 0 0 1-.82 1.24l-46.82 9.32a1.001 1.001 0 0 1-1.2-.84 12.848 12.848 0 0 0-.47-2.56Z" fill="#FF9820"/><path d="M3.42 122.499c.57 4.25 2.46 8.47 5.9 10.86a20.48 20.48 0 0 0 7.84 2.81 121.592 121.592 0 0 0 18.39 2.18c5 .2 9.82 1.06 14.33-1.93a14.716 14.716 0 0 0 5.88-8c.526-2.05.775-4.163.74-6.28 0-2.54-.2-5.08-.38-7.59-8.36-1.33-17.44-.66-25.94-1.43-8.5-.77-17-1.84-25.49-3.14-.24 0-.55 0-.65.19-.1.19-1.2 8.08-.62 12.33Z" fill="#D9D9D9"/><path d="M1.34 106.05v-.34a1.247 1.247 0 0 1 1.35-1.13l9.58.89v-.08a2.56 2.56 0 0 1 2.12-2.32 7.816 7.816 0 0 1 3.29.23c8.69 1.79 17.7 1.08 26.59 1.2 1.524-.075 3.047.17 4.47.72a5.988 5.988 0 0 1 2.91 3.89l7.27.67a1.195 1.195 0 0 1 1.046.872 1.2 1.2 0 0 1 .034.478l-.36 3.42a1.263 1.263 0 0 1-1.35 1.13l-56.22-5.2A1.23 1.23 0 0 1 1 109.11a15.16 15.16 0 0 0 .34-3.06Z" fill="#FF9820"/><path d="M50.27 132.509c1.6 4 4.45 7.62 8.37 9.11a20.604 20.604 0 0 0 8.28.81 122.254 122.254 0 0 0 18.37-2.36c4.88-1 9.8-1.36 13.43-5.35a14.69 14.69 0 0 0 3.75-9.25 23.304 23.304 0 0 0-.81-6.26c-.6-2.47-1.43-4.89-2.21-7.27-8.43.73-17.08 3.6-25.51 4.92-8.43 1.32-16.94 2.35-25.49 3.14-.24 0-.54.1-.58.35-.04.25.81 8.18 2.4 12.16Z" fill="#D9D9D9"/><path d="M44.25 117.06v-.33a1.249 1.249 0 0 1 1-1.43l9.5-1.47a.249.249 0 0 0 0-.07 2.56 2.56 0 0 1 1.46-2.76 8.086 8.086 0 0 1 3.25-.58c8.87-.37 17.43-3.25 26.08-5.29a10.991 10.991 0 0 1 4.51-.4 5.99 5.99 0 0 1 3.77 3.07l7.22-1.12a1.2 1.2 0 0 1 1.38 1l.47 3.4a1.261 1.261 0 0 1-1 1.43l-55.8 8.62a1.216 1.216 0 0 1-.912-.241 1.218 1.218 0 0 1-.468-.819 14.109 14.109 0 0 0-.46-3.01Z" fill="#FF9820"/><path d="M29.82 98.88c.72 4.23 2.74 8.39 6.26 10.66a20.377 20.377 0 0 0 7.92 2.54 121.33 121.33 0 0 0 18.46 1.58c5 0 9.85.74 14.25-2.4a14.684 14.684 0 0 0 5.62-8.26c.461-2.067.64-4.186.53-6.3-.07-2.54-.37-5.08-.63-7.57-8.39-1.06-17.45-.09-26-.57s-17.08-1.29-25.58-2.3c-.24 0-.55 0-.65.21-.1.21-.9 8.18-.18 12.41Z" fill="#D9D9D9"/><path d="M27.2 82.5v-.33A1.251 1.251 0 0 1 28.53 81l9.6.57v-.07a2.55 2.55 0 0 1 2-2.39 8 8 0 0 1 3.3.11c8.75 1.51 17.73.51 26.61.33 1.523-.125 3.056.07 4.5.57a5.93 5.93 0 0 1 3 3.79l7.29.43A1.212 1.212 0 0 1 86 85.65l-.25 3.42a1.26 1.26 0 0 1-1.31 1.18l-56.35-3.34A1.22 1.22 0 0 1 27 85.58c.17-1.017.238-2.05.2-3.08Z" fill="#FF9820"/><path d="M35.76 35.33c1.85 5.37 5.37 10.35 10.45 12.55 3.39 1.48 7.18 1.62 10.88 1.61a159.644 159.644 0 0 0 24.39-1.93c6.49-1 13-1.15 18.06-6.19a19.42 19.42 0 0 0 5.54-12 30.6 30.6 0 0 0-.66-8.32c-.63-3.29-1.58-6.53-2.45-9.73C90.8 11.78 79.2 15 68 16.21c-11.2 1.21-22.54 2-33.84 2.51-.32 0-.72.1-.8.42-.08.32.55 10.86 2.4 16.19Z" fill="#D9D9D9"/><path d="M28.81 14.56v-.44a1.66 1.66 0 0 1 1.45-1.82l12.6-1.3v-.09A3.38 3.38 0 0 1 45 7.32a10.54 10.54 0 0 1 4.33-.55C61 6.85 72.51 3.6 84.06 1.46a14.39 14.39 0 0 1 6-.23c1.56.38 4.19 2.35 4.77 4.29l9.59-1A1.6 1.6 0 0 1 106.16 6l.41 4.51a1.678 1.678 0 0 1-1.46 1.82L30.93 20.1a1.61 1.61 0 0 1-1.75-1.49 19.508 19.508 0 0 0-.37-4.05Z" fill="#FF9820"/><path d="M53 36.72a8 8 0 0 0 2 3.48c.93.94 2.31 1.67 3.54 1.19a4.06 4.06 0 0 0 1.34-1c2.32-2.33 4.32-5.33 4.19-8.61-.12-3.08-3.38-8-6.93-6.5S52.12 33.53 53 36.72ZM72 36.27A5.82 5.82 0 0 0 73.51 39c1.39 1.19 3.48 1.06 5.21.49a4.59 4.59 0 0 0 1.73-.92 5.45 5.45 0 0 0 1.23-3.5 20.06 20.06 0 0 0-.11-7.25c-1-3.75-6-7.54-9.28-3.6C70 27 71 33.28 72 36.27Z" fill="#fff"/><path d="M56.35 32.71a3.55 3.55 0 0 1 2.38-.84 2.63 2.63 0 0 1 1.89.57 3.21 3.21 0 0 1 .72 2.08A4.46 4.46 0 0 1 60.7 38c-1.09 1.21-3.44 2.61-4.6 1.18-1.16-1.43-1.1-5.18.25-6.47ZM74 36.15c-.4-1.54-.64-3.41.53-4.49a3.69 3.69 0 0 1 2.47-.78 4.119 4.119 0 0 1 2.11.47 3.58 3.58 0 0 1 1.53 2.36c.15.952.17 1.92.06 2.88a1.54 1.54 0 0 1-1 1.54c-2.77 1.62-4.86 1.33-5.7-1.98Z" fill="#1B383C"/><path d="M35.92 35.17A41.11 41.11 0 0 0 23.1 81.1M105.56 25.67a61.481 61.481 0 0 1 27.71 69M58.79 49.34c-.34 9.674-.065 19.36.82 29M78.57 49a193.664 193.664 0 0 0 3.49 30"/></g><defs><clipPath id="a"><path fill="#fff" d="M0 0h146.09v143.5H0z"/></clipPath></defs></svg>