<svg width="124" height="92" fill="none" xmlns="http://www.w3.org/2000/svg"><path d="M0 10C0 4.477 4.477 0 10 0h56c5.523 0 10 4.477 10 10v61a4 4 0 0 1-4 4H4a4 4 0 0 1-4-4V10ZM81.5 34v41h38a4 4 0 0 0 4-4V51.9a6.999 6.999 0 0 0-2.05-4.95l-17.9-17.9A7 7 0 0 0 98.6 27H88.5a7 7 0 0 0-7 7Z" fill="#FFB45C"/><path d="M93 48.5h17.615c2.692 0 4.022-3.273 2.092-5.15l-12.334-12a2.998 2.998 0 0 0-2.092-.85H93a3 3 0 0 0-3 3v12a3 3 0 0 0 3 3Z" fill="#1C383C"/><circle cx="25" cy="79" r="11.5" fill="#1C383C" stroke="#fff" stroke-width="3"/><circle cx="102" cy="79" r="11.5" fill="#1C383C" stroke="#fff" stroke-width="3"/></svg>