<svg width="155" height="105" fill="none" xmlns="http://www.w3.org/2000/svg"><path d="M0 82.348h1v3.973c0 1.166.117 2.32.341 3.447l-.98.196a18.683 18.683 0 0 0 2.79 6.73l.832-.556a17.676 17.676 0 0 0 4.877 4.875l-.555.832a18.675 18.675 0 0 0 6.732 2.787l.195-.98c1.127.224 2.282.339 3.448.339h4.194v1h8.389v-1h8.388v1h8.389v-1h8.389v1h8.388v-1h8.389v1h8.388v-1h8.389v1h8.388v-1h8.389v1h8.389v-1h8.388v1h8.389v-1h4.194c1.166 0 2.321-.115 3.448-.339l.195.98a18.675 18.675 0 0 0 6.732-2.787l-.555-.832a17.684 17.684 0 0 0 4.877-4.875l.831.556a18.672 18.672 0 0 0 2.791-6.73l-.98-.196c.225-1.127.34-2.281.341-3.448v-3.972h1v-7.945h-1v-7.945h1v-7.945h-1v-7.945h1v-7.945h-1v-3.97a17.69 17.69 0 0 0-.217-2.736l.987-.157a18.68 18.68 0 0 0-1.777-5.501l-.893.45a17.657 17.657 0 0 0-3.195-4.442l.712-.702a18.668 18.668 0 0 0-4.65-3.436l-.463.886a17.643 17.643 0 0 0-2.524-1.077h-.002l-3.67-1.25.322-.947-7.34-2.5-.322.947-7.34-2.5.322-.947-7.34-2.5-.322.947-7.34-2.5.322-.947-7.34-2.5-.322.947-7.34-2.5.322-.947-7.34-2.5-.322.947-3.67-1.25L0 82.348Zm0 0v-7.945h1v-7.945H0v-7.945h1v-7.945H0v-7.945h1v-3.972c0-.919.073-1.832.215-2.732l-.988-.155a18.673 18.673 0 0 1 1.77-5.497l.893.45a17.666 17.666 0 0 1 3.184-4.442l-.713-.701a18.672 18.672 0 0 1 4.638-3.441l.464.886a17.677 17.677 0 0 1 2.519-1.081l3.67-1.25-.322-.947 7.34-2.5.322.947 7.34-2.5-.322-.947 7.34-2.5.322.947 7.34-2.5-.322-.947 7.34-2.5.322.947 7.34-2.5-.322-.947 7.34-2.5.322.947 3.67-1.25L0 82.348ZM80.42.25a18.661 18.661 0 0 0-6.08 0l.162.987c-.946.156-1.882.39-2.8.702L80.421.249Zm0 0-.162.987c.946.156 1.882.39 2.8.702L80.42.249Z" stroke="#1B383C" stroke-width="2" stroke-dasharray="8 8"/><path d="M114.93 38.991c.342 8.243.158 16.5-.55 24.72-.6 7-2.11 14.87-6.9 18a13.501 13.501 0 0 1-6.12 1.7 232.004 232.004 0 0 1-45 .35c-3.91-.35-8-.88-11.28-3.7-4.69-4.07-6.65-11.83-7.08-19.13-.43-7.3.3-14.69-.46-21.94a653.334 653.334 0 0 0 77.39 0Z" fill="#D9D9D9" stroke="#1B383C" stroke-width="2" stroke-miterlimit="10"/><path d="M116.77 39.17c-.32 1-16.46.68-18.15.73-6.3.174-12.6.264-18.9.27-11.38 0-22.757-.282-34.13-.85-2-.1-13.44.61-10.58-3.25 1.91-2.58 11.6-1.08 14.55-1.08h2.31C50 31.2 62.55 31.85 64.61 31.8l30.59-.81a20.33 20.33 0 0 1 6.66.56 6.663 6.663 0 0 1 4.14 3.44l11 .17a8.873 8.873 0 0 1-.23 4.01Z" fill="#FF9820" stroke="#1B383C" stroke-width="2" stroke-miterlimit="10"/><path d="M75.08 35.111c5.573.054 11.143.054 16.71 0" stroke="#1B383C" stroke-width="2" stroke-miterlimit="10" stroke-linecap="round"/><path d="M63.21 50.251a11.48 11.48 0 0 0-1.7 5.64 12.66 12.66 0 0 0 1.25 7.18c1.18 2.09 3.45 3.5 5.58 2.92 2.56-.71 4-3.81 4.81-6.67a15.14 15.14 0 0 0 .72-6.86c-1.06-5.63-7.74-6.47-10.66-2.21ZM81.79 51.601a20.518 20.518 0 0 0-.86 8.92c.22 1.8.77 3.7 2.13 4.79a4.499 4.499 0 0 0 4.67.41 8.27 8.27 0 0 0 3.49-3.49 11 11 0 0 0 1.1-9.24c-1.69-4.4-8.72-6.87-10.53-1.39Z" fill="#fff" stroke="#1B383C" stroke-width="2" stroke-miterlimit="10"/><path d="M68.25 53.22a3 3 0 0 1 2.52-.69c.376.13.717.342 1 .62.437.392.779.878 1 1.42a5.172 5.172 0 0 1-.28 4.14c-4 7.93-9.4-1.51-4.24-5.49ZM86.94 53.22a3 3 0 0 1 2.52-.69 2.66 2.66 0 0 1 1.05.62c.437.392.78.877 1 1.42a5.131 5.131 0 0 1-.27 4.14c-4.06 7.93-9.47-1.51-4.3-5.49Z" fill="#1B383C" stroke="#1B383C" stroke-width="2" stroke-miterlimit="10"/><path d="M73.08 71.63a4.16 4.16 0 0 0 7.41 1.77M47.28 81.47c-2.08 0-4 1.06-5.85 2a149.882 149.882 0 0 1-13.21 6.18 6.16 6.16 0 0 1-3.26.68c-1.96-.34-3.11-2.34-4.76-3.42M106.31 81.88c2 0 3.74 1.18 5.4 2.29a101.437 101.437 0 0 0 12.28 7c1.46.7 3.1 1.39 4.66.94 1.56-.45 2.74-2.12 3.63-3.63M114.86 55.67a19.12 19.12 0 0 1 7.55 13.48c.31 3.41-.31 6.91.47 10.24M37.36 58.251a9.86 9.86 0 0 0-4.46 3.45c-2.26 3.15-2.44 7.3-2.55 11.18l-.21 8.11" stroke="#1B383C" stroke-width="2" stroke-miterlimit="10" stroke-linecap="round"/></svg>